# xmcd
#
# Track frame offsets:
#	150
#	13207
#	24389
#	37409
#	50909
#	67146
#	81861
#	94581
#	110248
#	124453
#	141575
#	158255
#
# Disc length: 2337 seconds
#
# Revision: 0
# Processed by: cddbd v1.5.2PL0 Copyright (c) Steve Scherf et al.
# Submitted via: EasyCDDAExtractor 16.0.6.1
#
DISCID=b4091f0c
DTITLE=Πάριος Γιάννης - Πιο καλή η μοναξιά-Γ. Πάριος
DYEAR=1984
DGENRE=Ποικίλη
TTITLE0=Πάριος Γιάννης-Πάριος Χάρης - Το τραγούδι του Χάρη (Πιο κ. μον.)[Χ. Βα
TTITLE0=ρθακούρη-Γ. Πάριου]
TTITLE1=Πάριος Γιάννης - Που αγαπιόμαστε αλλά [Γ. Κονιτόπουλου]
TTITLE2=Πάριος Γιάννης - Όταν έχεις φίλους [Αλ. Χρυσοβέργη-Σπ. Γιατρά]
TTITLE3=Πάριος Γιάννης - Ευτυχώς στη ζωή που υπάρχεις εσύ [Θ. Πολυκανδριώτη-Λ.
TTITLE3=Χαψιάδη]
TTITLE4=Πάριος Γιάννης - Δε μ' αγαπάς [Θ. Πολυκανδριώτη-Λ. Χαψιάδη]
TTITLE5=Πάριος Γιάννης - Φύγε και συ [Γ. Πάριου]
TTITLE6=Πάριος Γιάννης - Είσαι το λάθος μου [Τ. Μαρούδα-Ηλ. Λυμπερόπουλου]
TTITLE7=Πάριος Γιάννης - Φεύγω Μαργαρίτα [Θ. Πολυκανδριώτη-Δ. Ρήτα]
TTITLE8=Πάριος Γιάννης - Εσύ δεν είσαι άνθρωπος [Μ. Χιώτη-Χρ. Κολοκοτρώνη]
TTITLE9=Πάριος Γιάννης - Θα σ' εκδικηθώ [Γ. Πάριου]
TTITLE10=Πάριος Γιάννης - Δεν σού έχω εμπιστοσύνη [Αλ. Χρυσοβέργη-Σπ. Γιατρά]
TTITLE11=Πάριος Γιάννης - Σ' αγαπώ [Βαγγ. Κονιτόπουλου]
EXTD=
EXTT0=
EXTT1=
EXTT2=
EXTT3=
EXTT4=
EXTT5=
EXTT6=
EXTT7=
EXTT8=
EXTT9=
EXTT10=
EXTT11=
PLAYORDER=
